<?xml version="1.0" encoding="UTF-8"?>
<svg version="1.1" xmlns="http://www.w3.org/2000/svg" width="400" height="300">
<path d="M0 0 C132 0 264 0 400 0 C400 99 400 198 400 300 C268 300 136 300 0 300 C0 201 0 102 0 0 Z " fill="#FDFCFA" transform="translate(0,0)"/>
<path d="M0 0 C132 0 264 0 400 0 C400 33 400 66 400 100 C352.15 100 304.3 100 255 100 C255 98.68 255 97.36 255 96 C252.36 95.67 249.72 95.34 247 95 C248.11375 94.01 248.11375 94.01 249.25 93 C254.64177273 87.56227466 256.4652745 81.48615693 257 74 C248.75625727 74.20991012 243.51830435 76.74556847 237.5 82.3125 C237.005 82.869375 236.51 83.42625 236 84 C235.67 81.69 235.34 79.38 235 77 C231.65747276 76.92572162 229.1964086 76.93453047 226 78 C227 76 228 74 229 72 C229.09735819 69.68917466 229.12977373 67.37537042 229.125 65.0625 C229.12757813 63.81597656 229.13015625 62.56945313 229.1328125 61.28515625 C229.15199431 57.99323703 229.15199431 57.99323703 228 55 C222.21348461 57.44096183 218.55806841 59.76754645 215 65 C213.67649342 68.21265916 213.67649342 68.21265916 213 71 C210.525 68.525 210.525 68.525 208 66 C205.0280615 67.12451727 202.66559313 68.22293791 200 70 C200.04640625 69.21496094 200.0928125 68.42992188 200.140625 67.62109375 C200.37512815 60.79537716 200.26894283 56.45476028 196 51 C193.91548164 49.5337314 193.91548164 49.5337314 192 49 C187.58578006 54.14992327 185.71051498 57.98637188 185.875 64.8125 C185.89304688 65.78832031 185.91109375 66.76414062 185.9296875 67.76953125 C185.95289063 68.50558594 185.97609375 69.24164063 186 70 C183.03 68.02 183.03 68.02 180 66 C177.37812506 67.04874998 176.20628639 67.64931313 174.75 70.125 C174.5025 70.74375 174.255 71.3625 174 72 C173.67 72 173.34 72 173 72 C172.835 70.824375 172.67 69.64875 172.5 68.4375 C171.14364349 62.94376823 167.52367626 60.12246105 163 57 C160.22146084 55.56298277 160.22146084 55.56298277 158 55 C156.25911965 60.8029345 155.57253368 68.51548614 157.89453125 74.18359375 C159.05601138 75.97910593 159.05601138 75.97910593 161 78 C157.7 77.34 154.4 76.68 151 76 C150.67 78.64 150.34 81.28 150 84 C149.34 83.2575 148.68 82.515 148 81.75 C142.56227466 76.35822727 136.48615693 74.5347255 129 74 C130.09506621 81.97600467 132.06269731 88.59476524 138.3125 94 C138.869375 94.33 139.42625 94.66 140 95 C135.545 95.495 135.545 95.495 131 96 C131 97.32 131 98.64 131 100 C87.77 100 44.54 100 0 100 C0 67 0 34 0 0 Z " fill="#00913E" transform="translate(0,0)"/>
<path d="M0 0 C44.22 0 88.44 0 134 0 C134 4.29 134 8.58 134 13 C131.49348958 13.94401042 128.98697917 14.88802083 126.48046875 15.83203125 C124.04347139 16.9795308 122.64280178 17.88475849 121 20 C120.50180614 24.48374475 121.52875411 27.79727768 123 32 C126.54327056 32.00629355 130.082512 31.94647517 133.625 31.875 C134.62402344 31.87757813 135.62304688 31.88015625 136.65234375 31.8828125 C141.54330139 31.75325071 145.01893336 31.64254385 148.67578125 28.16796875 C151.31921748 24.56489853 151.44597818 22.35302862 152 18 C154.4375 15.25 154.4375 15.25 157 13 C157.66 12.01 158.32 11.02 159 10 C159.99 10.99 160.98 11.98 162 13 C161 16 161 16 158.9375 17.6875 C156.80661316 20.23081655 156.68905966 20.88281151 156.625 24.0625 C156.691304 28.04971457 156.691304 28.04971457 159 31 C162.00414569 31.51184645 162.00414569 31.51184645 165.5390625 31.51171875 C167.49199219 31.56489258 167.49199219 31.56489258 169.484375 31.61914062 C170.86457809 31.64224231 172.24478657 31.66502464 173.625 31.6875 C175.01305352 31.72066445 176.40107607 31.7551533 177.7890625 31.79101562 C181.19262707 31.87374115 184.5959259 31.94281257 188 32 C188.10887507 29.31139069 188.18770594 26.62726842 188.25 23.9375 C188.30027344 22.80924805 188.30027344 22.80924805 188.3515625 21.65820312 C188.45138056 15.89370995 187.1212768 12.82323285 184 8 C184 7.34 184 6.68 184 6 C190.64990964 4.54267938 197.2142064 3.54863863 204 3 C206.0625 5.8125 206.0625 5.8125 208 9 C207 12 207 12 205 13 C202.47179815 13.23417307 199.94512297 13.38156896 197.41015625 13.5234375 C194.58007532 14.08303211 193.6397263 14.64388843 192 17 C191.52635627 19.10676958 191.52635627 19.10676958 191.625 21.375 C191.61726562 22.12523437 191.60953125 22.87546875 191.6015625 23.6484375 C192.12235385 26.72212761 193.12267546 28.51067527 195 31 C197.4911462 31.77675842 197.4911462 31.77675842 200.32421875 31.70703125 C201.35224609 31.73603516 202.38027344 31.76503906 203.43945312 31.79492188 C205.04723633 31.80362305 205.04723633 31.80362305 206.6875 31.8125 C207.77095703 31.83763672 208.85441406 31.86277344 209.97070312 31.88867188 C212.64749983 31.94763215 215.32265815 31.98384663 218 32 C218.12503906 31.38640625 218.25007812 30.7728125 218.37890625 30.140625 C220.06016945 24.34608265 227.23443644 20.41620629 231.79296875 16.96484375 C233.94365497 15.05016203 234.94540601 13.64532235 236 11 C235.4946875 10.45730469 234.989375 9.91460937 234.46875 9.35546875 C233.8190625 8.64003906 233.169375 7.92460937 232.5 7.1875 C231.52546875 6.12595703 231.52546875 6.12595703 230.53125 5.04296875 C229 3 229 3 229 0 C234.89178824 0.2874043 238.10291468 2.84310899 242 7 C242.515625 7.9075 243.03125 8.815 243.5625 9.75 C245.52246377 12.81776938 247.55466407 13.15780677 251 14 C249.79310745 17.10343799 248.49403054 20.01193893 247 23 C246.67 25.97 246.34 28.94 246 32 C256.23 32 266.46 32 277 32 C277.061875 27.276875 277.12375 22.55375 277.1875 17.6875 C277.21481201 16.20080811 277.24212402 14.71411621 277.27026367 13.18237305 C277.27775635 12.01230713 277.28524902 10.84224121 277.29296875 9.63671875 C277.3086792 8.43748779 277.32438965 7.23825684 277.34057617 6.00268555 C277.27644707 2.65353713 277.27644707 2.65353713 274 0 C315.58 0 357.16 0 400 0 C400 32.67 400 65.34 400 99 C268 99 136 99 0 99 C0 66.33 0 33.66 0 0 Z " fill="#D9241C" transform="translate(0,201)"/>
<path d="M0 0 C0 0.99 0 1.98 0 3 C-1.32 3.66 -2.64 4.32 -4 5 C-2.35 5 -0.7 5 1 5 C0.34 6.32 -0.32 7.64 -1 9 C-2.65 8.67 -4.3 8.34 -6 8 C-6 8.66 -6 9.32 -6 10 C-4.02 10 -2.04 10 0 10 C-0.66 11.32 -1.32 12.64 -2 14 C-6.7465925 13.54359687 -9.25696594 12.83954308 -13 10 C-15.20800528 10.21717352 -15.20800528 10.21717352 -17 11 C-17.54377332 16.32897856 -16.86782075 19.29412619 -13.59765625 23.375 C-9.12261086 27.92663541 -3.75952846 30.1291081 2.125 32.375 C8.29344352 34.83145981 12.03104769 38.06209537 15 44 C15.62516408 51.35770033 15.21973535 56.70701953 10.6875 62.75 C5.70165067 66.44322173 0.69632365 66.22874008 -5.203125 65.53515625 C-13.27063864 63.99151188 -20.1323151 59.30126403 -27 55 C-26.54625 55.886875 -26.0925 56.77375 -25.625 57.6875 C-24.06671889 61.22774234 -23.62328814 64.54275993 -23.1875 68.375 C-21.71261201 78.45724213 -17.03945338 83.51353997 -9.1875 89.5 C-7.13576708 91.01551971 -5.06908454 92.50812789 -3 94 C-2 95 -2 95 -1.8671875 97.40625 C-1.88305485 103.68972202 -2.16943442 109.77075813 -3 116 C-7.95 116 -12.9 116 -18 116 C-18.33 115.01 -18.66 114.02 -19 113 C-19.66 113 -20.32 113 -21 113 C-21 113.99 -21 114.98 -21 116 C-21.99 116 -22.98 116 -24 116 C-23.64987213 113.40905378 -23.26229035 111.4225789 -21.875 109.1875 C-18.99131838 107.36116831 -16.32254207 107.81193158 -13 108 C-14.48654096 104.2836476 -15.40516258 102.36207495 -18.875 100.25 C-21.85201937 98.99551285 -21.85201937 98.99551285 -24.4375 98.3125 C-27.17059091 96.91262417 -28.20021744 95.72040013 -30.125 93.375 C-33.73884505 89.0049539 -37.89473819 85.96493585 -42.546875 82.76171875 C-44.59680815 81.28955338 -46.29497692 79.84710833 -48 78 C-51.85371888 79.23531786 -55.60907651 80.61827853 -59.35180664 82.1574707 C-70.79179169 86.85853209 -80.49859804 89.38718618 -93 90 C-95.64 86.04 -98.28 82.08 -101 78 C-99.14598393 85.70129751 -97.50123984 92.49531518 -93.75 99.5 C-90.39623015 105.78515055 -90.2665196 109.06607841 -92 116 C-97.61 116 -103.22 116 -109 116 C-109 115.01 -109 114.02 -109 113 C-109.45375 113.495 -109.9075 113.99 -110.375 114.5 C-112 116 -112 116 -114 116 C-114.3125 113.75 -114.3125 113.75 -114 111 C-111.6875 108.6875 -111.6875 108.6875 -109 107 C-108.01 107 -107.02 107 -106 107 C-106.57519432 105.76700366 -107.16065317 104.53879474 -107.75 103.3125 C-108.07484375 102.62800781 -108.3996875 101.94351563 -108.734375 101.23828125 C-112.33560844 94.86943322 -115.89661055 92.80509641 -122.5625 90.375 C-124.08729487 89.80656262 -125.60955708 89.23127415 -127.12890625 88.6484375 C-127.79994385 88.40270996 -128.47098145 88.15698242 -129.16235352 87.90380859 C-131.24780288 86.87812325 -132.52237899 85.78759739 -134 84 C-134 83.34 -134 82.68 -134 82 C-133.071875 81.566875 -132.14375 81.13375 -131.1875 80.6875 C-126.86466427 78.39893991 -124.98780254 76.43432873 -123 72 C-122.34 72.66 -121.68 73.32 -121 74 C-119.02 70.04 -117.04 66.08 -115 62 C-114.01 62 -113.02 62 -112 62 C-109.96834048 57.66579301 -109.47939368 53.71403788 -109 49 C-108.34 49.33 -107.68 49.66 -107 50 C-107 46.37 -107 42.74 -107 39 C-106.19892822 38.97494385 -105.39785645 38.9498877 -104.57250977 38.92407227 C-100.90237974 38.80720265 -97.23244983 38.68489255 -93.5625 38.5625 C-92.30244141 38.52318359 -91.04238281 38.48386719 -89.74414062 38.44335938 C-82.10801637 38.20253068 -82.10801637 38.20253068 -74.5078125 37.48046875 C-68.13563234 36.69016109 -61.72424287 36.77581477 -55.3125 36.75 C-54.02021484 36.729375 -52.72792969 36.70875 -51.39648438 36.6875 C-50.14802734 36.68234375 -48.89957031 36.6771875 -47.61328125 36.671875 C-46.48704346 36.6625293 -45.36080566 36.65318359 -44.20043945 36.64355469 C-38.55576503 37.2722239 -34.65458164 40.07181087 -30.4375 43.6875 C-21.99799835 50.60533393 -12.13963244 58.27015176 -0.875 58.3125 C0.15882813 58.32925781 1.19265625 58.34601563 2.2578125 58.36328125 C5.01202341 58.23197094 5.01202341 58.23197094 6.8046875 56.60546875 C8.91990902 53.76443593 9.12227176 52.16512635 8.8125 48.6875 C8.75707031 47.92824219 8.70164062 47.16898438 8.64453125 46.38671875 C7.74638445 43.06085395 6.45117345 41.43153264 4 39 C1.48679809 37.62509493 -1.13579592 36.63548884 -3.8125 35.625 C-11.54556152 32.47256412 -16.17134602 29.10611061 -20.9375 22.1875 C-22.74311406 16.77065782 -23.2914542 11.95535025 -20.95703125 6.61328125 C-18.15548824 2.60181736 -16.06149401 1.19943881 -11.1953125 0.28515625 C-7.45649838 -0.04883321 -3.75111946 -0.07724313 0 0 Z " fill="#F7C203" transform="translate(275,112)"/>
<path d="M0 0 C0.66 0 1.32 0 2 0 C4.61437258 3.92155886 4.21703011 7.44236768 4 12 C3.67 12.99 3.34 13.98 3 15 C2.11643319 26.28088792 3.87493227 37.79121351 5 49 C8.05412605 40.57629421 9.46823499 33.23448074 9.62890625 24.3125 C10.02840482 20.74644965 10.81401185 18.82200915 13 16 C13.66 16 14.32 16 15 16 C16.53214888 19.06429776 16.22938548 21.6165642 16 25 C15.51942139 25.78721436 15.03884277 26.57442871 14.54370117 27.38549805 C12.85622889 30.24349909 12.43508858 32.24376881 12.05078125 35.51953125 C11.92509766 36.54111328 11.79941406 37.56269531 11.66992188 38.61523438 C11.55197266 39.67033203 11.43402344 40.72542969 11.3125 41.8125 C11.11817383 43.42415039 11.11817383 43.42415039 10.91992188 45.06835938 C10.60278316 47.711182 10.29652444 50.35479857 10 53 C10.29165039 52.25355225 10.58330078 51.50710449 10.88378906 50.73803711 C13.08652208 45.14495298 15.54346114 39.92583846 18.46948242 34.68261719 C22.29979628 27.81891586 24.62062915 22.40524452 25.40625 14.47265625 C26.30916961 10.7124713 28.47073581 9.06976314 31.5390625 6.890625 C32.02117187 6.59671875 32.50328125 6.3028125 33 6 C33.50788514 12.34856426 33.10388671 15.84082813 29 21 C26.01317759 25.28816761 24.88201473 29.57105825 23.625 34.5625 C21.65928048 42.03177825 19.23817801 48.97246474 16 56 C18.23060941 53.04043327 20.45769041 50.07833196 22.67578125 47.109375 C23.97953972 45.36518719 25.2866144 43.62342634 26.60546875 41.890625 C28.6948564 39.08763111 30.176431 36.5662738 31.5 33.3125 C33.14125485 29.6880622 34.74192987 28.20139874 38 26 C39.22991531 28.90707256 39.00681965 29.98181428 37.875 33 C36 36 36 36 33.65234375 37.671875 C30.15645878 40.74042793 28.62770487 44.08242521 26.6875 48.25 C26.32849609 48.99507812 25.96949219 49.74015625 25.59960938 50.5078125 C24.72199241 52.33325578 23.85945177 54.1659342 23 56 C23.99966797 55.07380859 23.99966797 55.07380859 25.01953125 54.12890625 C25.94121094 53.28199219 26.86289063 52.43507812 27.8125 51.5625 C28.30588867 51.10875 28.79927734 50.655 29.30761719 50.1875 C32.67230639 47.12364857 36.1514979 44.2899621 39.75 41.5 C44.32458632 37.84293384 47.27860586 33.99958611 50.4375 29.109375 C52.52751711 26.28785191 54.68799533 25.0783271 58 24 C58.66 24 59.32 24 60 24 C58.82870282 29.5370412 57.68042637 31.84579962 53 35 C52.4328125 35.36867187 51.865625 35.73734375 51.28125 36.1171875 C44.81052755 40.59895838 40.21317546 46.39319258 35.28222656 52.44189453 C33.50271958 54.60427335 31.66311802 56.71088723 29.8125 58.8125 C29.26207031 59.43769531 28.71164063 60.06289062 28.14453125 60.70703125 C27.76683594 61.13371094 27.38914062 61.56039062 27 62 C38.44920273 56.35459632 38.44920273 56.35459632 48.38671875 48.4453125 C50.1654867 46.85174315 51.78849726 45.89353646 54 45 C56.25 45.375 56.25 45.375 58 46 C55.33572526 49.78155125 53.42255204 52.05248049 49.0625 53.6875 C41.78377182 56.53730713 35.96604818 62.07779809 30 67 C31.08667969 66.58105469 32.17335938 66.16210938 33.29296875 65.73046875 C38.57721106 63.75018759 43.93682735 62.02570506 49.3125 60.3125 C50.30056641 59.99216797 51.28863281 59.67183594 52.30664062 59.34179688 C53.25345703 59.03951172 54.20027344 58.73722656 55.17578125 58.42578125 C56.03083252 58.15161377 56.88588379 57.87744629 57.7668457 57.5949707 C60 57 60 57 63 57 C58.9029625 60.54164341 54.58206607 63.01116143 49.8125 65.5 C49.10802734 65.87769531 48.40355469 66.25539063 47.67773438 66.64453125 C42.19301993 69.53331298 36.82729413 71.66908235 31 74 C39.25 73.01 47.5 72.02 56 71 C56 71.99 56 72.98 56 74 C55.01773438 74.16435547 55.01773438 74.16435547 54.015625 74.33203125 C53.10296875 74.49058594 52.1903125 74.64914063 51.25 74.8125 C49.92742187 75.03873047 49.92742187 75.03873047 48.578125 75.26953125 C43.3420345 76.33847112 38.17698799 77.67737731 33 79 C33.74685059 79.04487549 34.49370117 79.08975098 35.26318359 79.13598633 C38.63489474 79.34681673 42.00476024 79.57937339 45.375 79.8125 C46.550625 79.88275391 47.72625 79.95300781 48.9375 80.02539062 C50.05898437 80.10595703 51.18046875 80.18652344 52.3359375 80.26953125 C53.37282715 80.33760986 54.4097168 80.40568848 55.47802734 80.47583008 C58 81 58 81 60 84 C52.04264468 85.88849677 44.15484303 86.55348122 36 87 C37.98 87.99 37.98 87.99 40 89 C39.24904053 89.02505615 38.49808105 89.0501123 37.72436523 89.07592773 C34.29526467 89.19254942 30.86639447 89.31497417 27.4375 89.4375 C26.25607422 89.47681641 25.07464844 89.51613281 23.85742188 89.55664062 C22.70693359 89.59853516 21.55644531 89.64042969 20.37109375 89.68359375 C19.31849365 89.72025146 18.26589355 89.75690918 17.18139648 89.79467773 C13.94837 89.95858813 13.94837 89.95858813 10.56835938 90.51367188 C6.84218132 91.02150895 3.29440904 91.11325481 -0.46484375 91.09765625 C-1.48210289 91.09553383 -1.48210289 91.09553383 -2.51991272 91.09336853 C-4.65915578 91.08782745 -6.79828925 91.07528653 -8.9375 91.0625 C-10.39908702 91.05747736 -11.86067569 91.0529158 -13.32226562 91.04882812 C-16.88154526 91.03787745 -20.44076191 91.02065445 -24 91 C-24.11972168 90.32598145 -24.23944336 89.65196289 -24.36279297 88.95751953 C-24.61246826 87.62116455 -24.61246826 87.62116455 -24.8671875 86.2578125 C-25.02815918 85.37754395 -25.18913086 84.49727539 -25.35498047 83.59033203 C-26.6409096 78.42617301 -29.07985732 74.82650524 -33.63623047 71.9765625 C-37.63948801 69.74003531 -41.77510748 67.81303035 -45.95458984 65.93164062 C-47.8476256 65.06940328 -49.71622551 64.15405242 -51.58203125 63.234375 C-57.39976994 60.39106736 -62.57891679 58.50978237 -68.96484375 57.4921875 C-71.87623319 56.78808948 -73.32568056 55.43537373 -75 53 C-75 52.34 -75 51.68 -75 51 C-69.05825925 50.3291583 -66.08240698 50.54007235 -61.3125 54.25 C-56.38057308 58.04203626 -51.81216977 59.44783934 -45.828125 60.95703125 C-41.48089698 62.14142909 -37.32938266 63.64089792 -33.125 65.25 C-32.41649902 65.52078369 -31.70799805 65.79156738 -30.97802734 66.07055664 C-29.3169661 66.70925218 -27.65821206 67.35394335 -26 68 C-28.03977583 66.41418022 -30.08173308 64.83131092 -32.125 63.25 C-32.69476563 62.8065625 -33.26453125 62.363125 -33.8515625 61.90625 C-38.56617178 58.26314283 -43.1326941 54.75958206 -48.6875 52.5 C-51.98913573 51.00491967 -53.28429639 50.12863599 -55 47 C-55 46.34 -55 45.68 -55 45 C-49.46888398 45.38589182 -47.78826004 47.12564314 -44 51 C-40.76369916 53.17082855 -37.39405351 55.08771617 -34 57 C-33.12601563 57.49242187 -32.25203125 57.98484375 -31.3515625 58.4921875 C-29.23963114 59.6714047 -27.12308705 60.84102011 -25 62 C-25.33 61.67 -25.66 61.34 -26 61 C-31.53269733 54.99801138 -36.80984934 48.86008028 -41.859375 42.4453125 C-44.90418749 38.96711429 -48.17226251 36.49664249 -52.125 34.125 C-55.39557703 31.70761698 -56.53170312 29.75231424 -58 26 C-58 25.34 -58 24.68 -58 24 C-51.95419503 25.18545195 -49.68379253 26.82277806 -46 32 C-45.42121094 32.94488281 -44.84242188 33.88976562 -44.24609375 34.86328125 C-41.74416174 38.35728369 -39.07160856 40.76351584 -35.75 43.4375 C-34.5946147 44.39009475 -33.4396665 45.34321991 -32.28515625 46.296875 C-31.72586426 46.75513672 -31.16657227 47.21339844 -30.59033203 47.68554688 C-27.3285742 50.38147935 -24.16827574 53.1954538 -21 56 C-22.17207939 52.48376184 -23.87328123 49.40055381 -25.6875 46.1875 C-26.04400635 45.55384521 -26.4005127 44.92019043 -26.76782227 44.26733398 C-28.69693311 40.93680243 -30.53257522 38.14308852 -33.4375 35.5625 C-36.58146847 32.41853153 -36.82546741 30.36331487 -37 26 C-31.86524499 28.63676609 -30.11106148 31.55566473 -27.76953125 36.70703125 C-25.66042414 40.63192595 -23.10675541 43.92093977 -20.3125 47.375 C-19.80138672 48.01566406 -19.29027344 48.65632813 -18.76367188 49.31640625 C-17.51395047 50.88147792 -16.25764526 52.44128856 -15 54 C-16.71741673 48.79463384 -18.44869205 43.59423874 -20.19628906 38.39892578 C-20.69978748 36.89607784 -21.19971006 35.3920219 -21.69433594 33.88623047 C-24.29113596 25.54770867 -24.29113596 25.54770867 -28.8125 18.1875 C-31.68018261 14.00887677 -31.50114733 10.91124379 -31 6 C-27.56859447 8.17444682 -24.48617617 10.23345924 -23.37109375 14.28515625 C-23.21833984 15.56712891 -23.21833984 15.56712891 -23.0625 16.875 C-22.13582566 24.42224768 -18.51682107 30.52314492 -14.98535156 37.13769531 C-13.62366006 39.71127876 -12.34351862 42.32302341 -11.0625 44.9375 C-9.80699715 47.66686729 -9.80699715 47.66686729 -8 50 C-8.44699195 46.74833509 -8.90956812 43.49907254 -9.375 40.25 C-9.56449219 38.86941406 -9.56449219 38.86941406 -9.7578125 37.4609375 C-9.88671875 36.57148437 -10.015625 35.68203125 -10.1484375 34.765625 C-10.26364746 33.94868164 -10.37885742 33.13173828 -10.49755859 32.29003906 C-11.01598121 29.92716048 -11.89855343 28.14008152 -13 26 C-13.1953125 23.421875 -13.1953125 23.421875 -13.125 20.75 C-13.10695312 19.85796875 -13.08890625 18.9659375 -13.0703125 18.046875 C-13.04710937 17.37140625 -13.02390625 16.6959375 -13 16 C-12.34 16 -11.68 16 -11 16 C-8.24116243 19.67620165 -7.65971481 22.40271481 -7.5625 26.9375 C-7.16961613 34.4022935 -5.28252004 40.91887968 -3 48 C0.26562172 30.10866199 0.26562172 30.10866199 -2 13 C-2.16796875 10.9765625 -2.16796875 10.9765625 -2.1875 8.625 C-2.20167969 7.85414062 -2.21585937 7.08328125 -2.23046875 6.2890625 C-1.97801607 3.78165112 -1.25193467 2.16738098 0 0 Z " fill="#F7C208" transform="translate(192,55)"/>
<path d="M0 0 C0.66 0.33 1.32 0.66 2 1 C2 1.99 2 2.98 2 4 C2.61875 3.505 3.2375 3.01 3.875 2.5 C8.26029741 0.39505724 12.21713261 0.74924773 17 1 C16 3 16 3 15 4 C16.485 3.690625 16.485 3.690625 18 3.375 C20.99808201 3.36278785 21.89952298 3.91016597 24.17578125 5.9453125 C30.68280134 13.72518661 32.35770874 19.98415527 32 30 C31.34 29.34 30.68 28.68 30 28 C30.02320313 28.91523438 30.04640625 29.83046875 30.0703125 30.7734375 C30.08835938 31.96195313 30.10640625 33.15046875 30.125 34.375 C30.14820313 35.55835938 30.17140625 36.74171875 30.1953125 37.9609375 C30 41 30 41 28 43 C27.505 44.010625 27.01 45.02125 26.5 46.0625 C25 49 25 49 23 50 C21.95191959 51.97522846 20.9479589 53.97481509 20 56 C19.01 55.67 18.02 55.34 17 55 C16.90203125 55.58394531 16.8040625 56.16789062 16.703125 56.76953125 C15.8593916 59.44604108 14.72414117 60.70906722 12.75 62.6875 C12.16734375 63.28949219 11.5846875 63.89148438 10.984375 64.51171875 C8.56034739 66.32973946 7.03054537 66.88741008 4 67 C1.8671875 65.70703125 1.8671875 65.70703125 -0.125 63.8125 C-0.78757813 63.20019531 -1.45015625 62.58789062 -2.1328125 61.95703125 C-4 60 -4 60 -5.6171875 57.76171875 C-6.07351562 57.18035156 -6.52984375 56.59898437 -7 56 C-7.66 56 -8.32 56 -9 56 C-9.27263672 55.15115234 -9.27263672 55.15115234 -9.55078125 54.28515625 C-9.92783203 53.18494141 -9.92783203 53.18494141 -10.3125 52.0625 C-10.55613281 51.33160156 -10.79976562 50.60070312 -11.05078125 49.84765625 C-11.91240441 47.64067976 -11.91240441 47.64067976 -15 47 C-15.73046875 45.15234375 -15.73046875 45.15234375 -16.1875 42.9375 C-16.34605469 42.20402344 -16.50460938 41.47054687 -16.66796875 40.71484375 C-16.77753906 40.14894531 -16.88710937 39.58304688 -17 39 C-17.66 39.66 -18.32 40.32 -19 41 C-20.04976964 37.85069107 -20.10131595 35.61185544 -20.0625 32.3125 C-20.05347656 31.31863281 -20.04445313 30.32476562 -20.03515625 29.30078125 C-20.02355469 28.54152344 -20.01195313 27.78226563 -20 27 C-20.66 27.66 -21.32 28.32 -22 29 C-21.48964169 24.6109185 -20.47785723 21.66291938 -18 18 C-18.66 18 -19.32 18 -20 18 C-18.73052346 13.03750078 -16.99833482 10.23674724 -13 7 C-11.68 7 -10.36 7 -9 7 C-8.67 5.68 -8.34 4.36 -8 3 C-7.67 4.32 -7.34 5.64 -7 7 C-6.34 7 -5.68 7 -5 7 C-4.9175 6.401875 -4.835 5.80375 -4.75 5.1875 C-3.79544128 2.4033704 -2.42867729 1.56688858 0 0 Z " fill="#F8C30A" transform="translate(132,125)"/>
<path d="M0 0 C0.9075 0.0825 1.815 0.165 2.75 0.25 C4.75 4 4.75 4 4.75 6.25 C5.41 7.1575 6.07 8.065 6.75 9 C9.00743186 12.66832677 9.60735666 14.04895236 8.75 18.25 C7.3984375 19.90234375 7.3984375 19.90234375 5.75 21.625 C3.18581008 24.32130275 2.34945393 25.81715551 2.4375 29.5625 C2.540625 30.779375 2.64375 31.99625 2.75 33.25 C2.42 33.91 2.09 34.57 1.75 35.25 C-3.86290323 34.48460411 -3.86290323 34.48460411 -6.3125 33 C-6.951875 32.7525 -7.59125 32.505 -8.25 32.25 C-9.93496298 33.21885372 -11.60178756 34.21986723 -13.25 35.25 C-15.5625 34.9375 -15.5625 34.9375 -17.25 34.25 C-17.394375 33.3425 -17.53875 32.435 -17.6875 31.5 C-17.873125 30.4275 -18.05875 29.355 -18.25 28.25 C-18.353125 27.569375 -18.45625 26.88875 -18.5625 26.1875 C-19.20234463 24.02439555 -19.20234463 24.02439555 -21.25 21.875 C-23.6676079 18.70188963 -24.3269362 17.2506823 -24.25 13.25 C-22.92963776 10.01107059 -21.38013275 7.02970619 -19.25 4.25 C-18.26 3.92 -17.27 3.59 -16.25 3.25 C-16.25 2.59 -16.25 1.93 -16.25 1.25 C-13.10375007 0.98781251 -11.63162983 1.00245633 -8.9375 2.75 C-8.1021875 3.4925 -8.1021875 3.4925 -7.25 4.25 C-6.71375 3.59 -6.1775 2.93 -5.625 2.25 C-3.25 0.25 -3.25 0.25 0 0 Z " fill="#FEFCF4" transform="translate(145.25,136.75)"/>
<path d="M0 0 C0.66 0 1.32 0 2 0 C1.94199219 0.56847656 1.88398438 1.13695312 1.82421875 1.72265625 C1.4453097 8.20741402 2.80720136 11.0734616 7 16 C5.10254668 21.05987551 0.84315168 23.09513992 -3.46875 26 C-6.34437863 27.98118248 -6.34437863 27.98118248 -8 32 C-12.62 32 -17.24 32 -22 32 C-22.33 31.01 -22.66 30.02 -23 29 C-23.66 29 -24.32 29 -25 29 C-25 29.66 -25 30.32 -25 31 C-25.66 31 -26.32 31 -27 31 C-27.04241723 28.66705225 -27.04092937 26.33297433 -27 24 C-25.39797384 22.39797384 -23.5251789 22.84260838 -21.3125 22.75 C-15.96656283 22.29747447 -13.69808498 20.79540301 -10 17 C-10.78318689 13.08406554 -12.39179858 9.63593365 -14 6 C-13.07316406 5.65066406 -12.14632812 5.30132812 -11.19140625 4.94140625 C-9.99386719 4.48636719 -8.79632813 4.03132812 -7.5625 3.5625 C-6.36753906 3.11003906 -5.17257813 2.65757812 -3.94140625 2.19140625 C-1.15554277 1.2855174 -1.15554277 1.2855174 0 0 Z " fill="#F7C206" transform="translate(223,196)"/>
<path d="M0 0 C0.66 0.33 1.32 0.66 2 1 C2 1.99 2 2.98 2 4 C2.61875 3.505 3.2375 3.01 3.875 2.5 C8.26029741 0.39505724 12.21713261 0.74924773 17 1 C16 3 16 3 15 4 C16.093125 3.896875 17.18625 3.79375 18.3125 3.6875 C19.529375 3.790625 20.74625 3.89375 22 4 C23.9375 6.5 23.9375 6.5 25 9 C23 11 23 11 20.375 11.125 C19.59125 11.08375 18.8075 11.0425 18 11 C18 11.66 18 12.32 18 13 C18.99 13.33 19.98 13.66 21 14 C20.01 14.33 19.02 14.66 18 15 C17.01 14.34 16.02 13.68 15 13 C12.58582128 12.41597867 12.58582128 12.41597867 10 13 C7.18668622 15.39583651 7.18668622 15.39583651 5 18 C4.4740625 17.0409375 4.4740625 17.0409375 3.9375 16.0625 C1.22648021 13.1765757 -1.15134437 13.41235596 -5 13 C-5.99 12.34 -6.98 11.68 -8 11 C-11.31086259 11.28274138 -11.31086259 11.28274138 -14 13 C-14.36760731 15.32817964 -14.70241581 17.6618385 -15 20 C-15.99 20.33 -16.98 20.66 -18 21 C-18.33 20.01 -18.66 19.02 -19 18 C-19.33 17.34 -19.66 16.68 -20 16 C-15.32258065 8.74193548 -15.32258065 8.74193548 -13 7 C-11.68 7 -10.36 7 -9 7 C-8.67 5.68 -8.34 4.36 -8 3 C-7.67 4.32 -7.34 5.64 -7 7 C-6.34 7 -5.68 7 -5 7 C-4.9175 6.401875 -4.835 5.80375 -4.75 5.1875 C-3.79544128 2.4033704 -2.42867729 1.56688858 0 0 Z " fill="#F7C208" transform="translate(132,125)"/>
<path d="M0 0 C1.77111844 0.47811177 3.54188483 0.9575278 5.3125 1.4375 C6.29863281 1.70433594 7.28476563 1.97117188 8.30078125 2.24609375 C10.21517526 2.78079425 12.11433615 3.37144538 14 4 C14.3125 6.1875 14.3125 6.1875 14 9 C13.195625 9.78375 12.39125 10.5675 11.5625 11.375 C8.38845031 14.62646553 8.56011208 16.59911939 8 21 C5.82473931 23.8934584 4.66059866 24.88873206 1.0546875 25.49609375 C0.00539062 25.47675781 -1.04390625 25.45742187 -2.125 25.4375 C-3.70667969 25.43556641 -3.70667969 25.43556641 -5.3203125 25.43359375 C-6.64675781 25.21896484 -6.64675781 25.21896484 -8 25 C-8.66 24.01 -9.32 23.02 -10 22 C-10.99 22.99 -11.98 23.98 -13 25 C-13.33 23.35 -13.66 21.7 -14 20 C-11.40617808 17.6223299 -9.18143797 16.69354533 -5.8125 15.9375 C-4.554375 15.628125 -3.29625 15.31875 -2 15 C-0.58365167 12.16730334 -0.6536995 9.52533562 -0.4375 6.375 C-0.35371094 5.18648437 -0.26992187 3.99796875 -0.18359375 2.7734375 C-0.12300781 1.85820312 -0.06242188 0.94296875 0 0 Z " fill="#F7C206" transform="translate(139,203)"/>
<path d="M0 0 C0.66 0 1.32 0 2 0 C4.7228258 3.64152986 5.33955678 6.32439591 5.4375 10.8125 C5.86134743 18.84717301 7.86976355 26.28160839 10 34 C8.515 34.495 8.515 34.495 7 35 C6.34 34.67 5.68 34.34 5 34 C4.52929688 32.11401367 4.52929688 32.11401367 4.21875 29.66796875 C4.09886719 28.78689453 3.97898438 27.90582031 3.85546875 26.99804688 C3.73816406 26.07056641 3.62085938 25.14308594 3.5 24.1875 C3.26691518 22.36764546 3.02754939 20.54858197 2.78125 18.73046875 C2.67876953 17.91989014 2.57628906 17.10931152 2.47070312 16.27416992 C1.97980497 13.90242912 1.10547392 12.14063006 0 10 C-0.1953125 7.421875 -0.1953125 7.421875 -0.125 4.75 C-0.09792969 3.41195312 -0.09792969 3.41195312 -0.0703125 2.046875 C-0.04710937 1.37140625 -0.02390625 0.6959375 0 0 Z " fill="#F8C315" transform="translate(179,71)"/>
<path d="M0 0 C2 2 2 2 2 5 C-3.02125926 5.77916092 -6.97703996 6.13016601 -12 5 C-12 3.68 -12 2.36 -12 1 C-7.98612727 -1.84315985 -4.58509907 -0.88743853 0 0 Z " fill="#FEFCF5" transform="translate(143,172)"/>
<path d="M0 0 C0.66 0 1.32 0 2 0 C3.53214888 3.06429776 3.22938548 5.6165642 3 9 C2.03114628 10.68496298 1.03013277 12.35178756 0 14 C-0.71923208 17.69523952 -0.71923208 17.69523952 -1 21 C-3.02808782 17.63062701 -3.29772548 14.96789912 -3.3125 11.0625 C-3.32925781 10.04285156 -3.34601563 9.02320312 -3.36328125 7.97265625 C-2.95106906 4.59960812 -2.04121191 2.69678362 0 0 Z " fill="#F8C419" transform="translate(205,71)"/>
<path d="M0 0 C2.56406672 0.08737713 5.12482216 0.19429119 7.6875 0.3125 C8.7693457 0.34633789 8.7693457 0.34633789 9.87304688 0.38085938 C14.31517269 0.60397985 17.39889306 1.12337612 21 4 C21 4.66 21 5.32 21 6 C12.81945532 8.24563972 7.24673077 4.81116176 0 1 C0 0.67 0 0.34 0 0 Z " fill="#F8C621" transform="translate(239,146)"/>
<path d="M0 0 C1.32 0.99 2.64 1.98 4 3 C3 6 3 6 0.9375 7.6875 C-1.53079857 10.63353378 -1.45442284 12.36266766 -1.2734375 16.09375 C-0.94716695 18.36832187 -0.27470451 20.08794324 1 22 C-2 21 -2 21 -3.6875 17.875 C-5.12883378 14.14133218 -5.53002166 11.01302113 -5 7 C-3.0625 4.75 -3.0625 4.75 -1 3 C-0.67 2.01 -0.34 1.02 0 0 Z " fill="#D81A15" transform="translate(158,211)"/>
<path d="M0 0 C0.66 0.33 1.32 0.66 2 1 C-2.11141993 4.60053343 -6.43465967 6.89608242 -11.3125 9.25 C-12.42334961 9.79527344 -12.42334961 9.79527344 -13.55664062 10.3515625 C-15.36839254 11.23990537 -17.18382953 12.12072593 -19 13 C-19 12.34 -19 11.68 -19 11 C-17.5459375 10.319375 -17.5459375 10.319375 -16.0625 9.625 C-12.92920418 8.34213779 -12.92920418 8.34213779 -12 6 C-12.66 5.67 -13.32 5.34 -14 5 C-13.07316406 4.72285156 -12.14632812 4.44570312 -11.19140625 4.16015625 C-9.99386719 3.79792969 -8.79632813 3.43570313 -7.5625 3.0625 C-6.36753906 2.70285156 -5.17257813 2.34320313 -3.94140625 1.97265625 C-1.14132455 1.29110858 -1.14132455 1.29110858 0 0 Z " fill="#F8C41D" transform="translate(253,111)"/>
<path d="M0 0 C0 0.99 0 1.98 0 3 C-5.98729887 4.11517502 -11.96251023 5.19500136 -18 6 C-17.67 5.34 -17.34 4.68 -17 4 C-17.99 3.34 -18.98 2.68 -20 2 C-17.04181155 1.66533626 -14.08346412 1.33220993 -11.125 1 C-10.28324219 0.90460938 -9.44148437 0.80921875 -8.57421875 0.7109375 C-7.36572266 0.57558594 -7.36572266 0.57558594 -6.1328125 0.4375 C-5.38918457 0.35371094 -4.64555664 0.26992187 -3.87939453 0.18359375 C-2 0 -2 0 0 0 Z " fill="#F8C625" transform="translate(248,126)"/>
<path d="M0 0 C0 0.66 0 1.32 0 2 C-2.5614657 4.29648649 -3.47967572 5 -7 5 C-7.33 5.99 -7.66 6.98 -8 8 C-9.4606285 5.35261084 -10 4.10551666 -10 1 C-6.61981469 -0.04005702 -3.5219721 -0.08004482 0 0 Z " fill="#FBE083" transform="translate(151,148)"/>
<path d="M0 0 C1.1446875 0.3403125 1.1446875 0.3403125 2.3125 0.6875 C1.3225 1.0175 0.3325 1.3475 -0.6875 1.6875 C-0.6875 2.6775 -0.6875 3.6675 -0.6875 4.6875 C-1.6775 5.1825 -1.6775 5.1825 -2.6875 5.6875 C-2.6875 6.6775 -2.6875 7.6675 -2.6875 8.6875 C-3.6775 9.0175 -4.6675 9.3475 -5.6875 9.6875 C-6.04924071 3.29674751 -6.04924071 3.29674751 -4.5 0.6875 C-2.6875 -0.3125 -2.6875 -0.3125 0 0 Z " fill="#FDF3CF" transform="translate(122.6875,135.3125)"/>
<path d="M0 0 C2.31 0.33 4.62 0.66 7 1 C6.25 6.75 6.25 6.75 4 9 C4 7.68 4 6.36 4 5 C2.68 4.67 1.36 4.34 0 4 C0 2.68 0 1.36 0 0 Z " fill="#FAD254" transform="translate(127,148)"/>
<path d="M0 0 C0.86172797 2.41283832 1.08724082 3.69465714 0.375 6.1875 C-1 8 -1 8 -3.625 8.75 C-4.40875 8.8325 -5.1925 8.915 -6 9 C-5.69381595 5.32579134 -5.24228216 4.21864487 -2.4375 1.6875 C-1.633125 1.130625 -0.82875 0.57375 0 0 Z " fill="#F7C00C" transform="translate(230,81)"/>
<path d="M0 0 C4.29 0 8.58 0 13 0 C12.67 0.66 12.34 1.32 12 2 C11.01 2 10.02 2 9 2 C8.67 2.99 8.34 3.98 8 5 C5.33333333 3.66666667 2.66666667 2.33333333 0 1 C0 0.67 0 0.34 0 0 Z " fill="#F8C31A" transform="translate(131,161)"/>
<path d="M0 0 C2 0.6875 2 0.6875 4 2.6875 C4.125 6.3125 4.125 6.3125 4 9.6875 C3.34 9.6875 2.68 9.6875 2 9.6875 C1.7525 8.57375 1.505 7.46 1.25 6.3125 C0.38994661 2.64134802 0.38994661 2.64134802 -2.125 1.25 C-2.74375 1.064375 -3.3625 0.87875 -4 0.6875 C-2 -0.3125 -2 -0.3125 0 0 Z " fill="#FEF9E6" transform="translate(154,135.3125)"/>
<path d="M0 0 C0.33 0 0.66 0 1 0 C1 1.98 1 3.96 1 6 C1.66 6 2.32 6 3 6 C2.67 9.3 2.34 12.6 2 16 C-0.05279359 11.89441282 -0.2216942 10.19793315 -0.125 5.75 C-0.10695312 4.67234375 -0.08890625 3.5946875 -0.0703125 2.484375 C-0.04710937 1.66453125 -0.02390625 0.8446875 0 0 Z " fill="#F9CE43" transform="translate(202,76)"/>
<path d="M0 0 C0.66 0 1.32 0 2 0 C5.91058106 4.51220891 5.29469532 9.37895957 5 15 C4.67 15 4.34 15 4 15 C3.96261719 14.38511719 3.92523438 13.77023438 3.88671875 13.13671875 C3.82097656 12.32847656 3.75523437 11.52023438 3.6875 10.6875 C3.62949219 9.88699219 3.57148438 9.08648437 3.51171875 8.26171875 C2.90964011 5.60062309 1.92700026 4.84434073 0 3 C0 2.01 0 1.02 0 0 Z " fill="#F8C92C" transform="translate(179,71)"/>
<path d="M0 0 C0.99 0.33 1.98 0.66 3 1 C1.25 5.875 1.25 5.875 -1 7 C-1.625 4.625 -1.625 4.625 -2 2 C-1.34 1.34 -0.68 0.68 0 0 Z " fill="#F8C216" transform="translate(127,221)"/>
<path d="M0 0 C3.3125 1.3125 3.3125 1.3125 6 3 C2.99221479 4.00259507 0.46179353 4.30314642 -2.6875 4.5625 C-3.68136719 4.64628906 -4.67523438 4.73007813 -5.69921875 4.81640625 C-6.45847656 4.87699219 -7.21773437 4.93757812 -8 5 C-7.01 4.34 -6.02 3.68 -5 3 C-4.236875 2.401875 -3.47375 1.80375 -2.6875 1.1875 C-1.800625 0.795625 -0.91375 0.40375 0 0 Z " fill="#F8C825" transform="translate(137,168)"/>
<path d="M0 0 C-2 2 -2 2 -3.9453125 2.1953125 C-5.96354167 2.13020833 -7.98177083 2.06510417 -10 2 C-9.67 1.34 -9.34 0.68 -9 0 C-5.65506316 -0.99444068 -3.31044803 -1.10348268 0 0 Z " fill="#FDF6D7" transform="translate(234,133)"/>
<path d="M0 0 C0.33 0.66 0.66 1.32 1 2 C1.99 2 2.98 2 4 2 C3.67 2.99 3.34 3.98 3 5 C3 4.34 3 3.68 3 3 C2.34 3 1.68 3 1 3 C1 3.99 1 4.98 1 6 C0.01 6 -0.98 6 -2 6 C-1.125 1.125 -1.125 1.125 0 0 Z " fill="#F8C31E" transform="translate(253,222)"/>
<path d="M0 0 C0.66 0 1.32 0 2 0 C3.38232443 1.62626404 4.71937515 3.2925002 6 5 C4 6 4 6 0.875 5.0625 C-0.07375 4.711875 -1.0225 4.36125 -2 4 C-1.34 2.68 -0.68 1.36 0 0 Z " fill="#F8C31E" transform="translate(145,104)"/>
<path d="M0 0 C-1.65 1.32 -3.3 2.64 -5 4 C-5.66 3.67 -6.32 3.34 -7 3 C-7 2.01 -7 1.02 -7 0 C-3.98968256 -0.93423645 -3.13349732 -1.04449911 0 0 Z " fill="#F8CA3A" transform="translate(148,149)"/>
</svg>
